<svg xmlns="http://www.w3.org/2000/svg" version="1.1" xmlns:xlink="http://www.w3.org/1999/xlink" xmlns:svgjs="http://svgjs.dev/svgjs" width="1000" height="454" viewBox="0 0 1000 454"><g transform="matrix(1,0,0,1,-0.605642266740233,0.07427570816102502)"><svg viewBox="0 0 396 180" data-background-color="#ffffff" preserveAspectRatio="xMidYMid meet" height="454" width="1000" xmlns="http://www.w3.org/2000/svg" xmlns:xlink="http://www.w3.org/1999/xlink"><defs></defs><g id="tight-bounds" transform="matrix(1,0,0,1,0.23983433762913364,-0.029448518654149325)"><svg viewBox="0 0 395.52 180.0588970373083" height="180.0588970373083" width="395.52"><g><svg viewBox="0 0 395.52 180.0588970373083" height="180.0588970373083" width="395.52"><g transform="matrix(1,0,0,1,0,104.91759182190032)"><svg viewBox="0 0 395.52 75.14130521540798" height="75.14130521540798" width="395.52"><g><svg viewBox="0 0 395.52 75.14130521540798" height="75.14130521540798" width="395.52"><g><svg viewBox="0 0 395.52 75.14130521540798" height="75.14130521540798" width="395.52"><g transform="matrix(1,0,0,1,0,0)"><svg width="395.52" viewBox="1.2220609188079834 -31.50299072265625 222.59861755371094 42.289527893066406" height="75.14130521540798" data-palette-color="#000000"><path d="M1.495-3.999c-0.54-3.31-0.279-6.409 0.783-9.298 1.061-2.895 2.762-5.301 5.104-7.216 2.335-1.915 5.079-3.129 8.23-3.644v0c3.704-0.605 7.081-0.237 10.13 1.103 3.054 1.332 5.481 3.537 7.281 6.613v0l-5.31 0.867c-1.275-1.893-2.887-3.247-4.838-4.064-1.95-0.816-4.159-1.023-6.626-0.62v0c-2.369 0.387-4.407 1.287-6.115 2.7-1.701 1.413-2.923 3.22-3.665 5.421-0.741 2.208-0.889 4.674-0.444 7.398v0c0.44 2.698 1.363 4.975 2.767 6.834 1.403 1.851 3.136 3.176 5.198 3.974 2.069 0.797 4.287 1.002 6.657 0.616v0c2.467-0.403 4.497-1.295 6.088-2.676 1.593-1.375 2.692-3.162 3.299-5.361v0l5.31-0.867c-0.733 3.457-2.336 6.295-4.811 8.517-2.468 2.22-5.554 3.632-9.258 4.236v0c-3.152 0.514-6.138 0.242-8.959-0.817-2.827-1.058-5.202-2.778-7.124-5.16-1.923-2.388-3.155-5.24-3.697-8.556zM65.748 4.774l-3.515-7.335-14.934 1.508-1.978 7.888-4.716 0.477 8.942-35.277 5.154-0.52 15.763 32.782zM48.206-4.813l12.377-1.25-7.934-16.667zM98.665 2.902l-5.373 0.271-8.888-13.64-5.423 0.273 0.708 14.053-4.484 0.226-1.732-34.357 11.096-0.559c2.597-0.131 4.813 0.201 6.648 0.996 1.836 0.795 3.234 1.926 4.196 3.393 0.962 1.467 1.492 3.172 1.59 5.117v0c0.119 2.364-0.458 4.482-1.732 6.355-1.274 1.88-3.257 3.185-5.951 3.915v0zM78.143-26.803l0.656 13.014 6.612-0.333c2.43-0.123 4.221-0.814 5.372-2.073 1.158-1.26 1.687-2.892 1.586-4.896v0c-0.103-2.037-0.781-3.585-2.036-4.644-1.255-1.058-3.114-1.525-5.578-1.401v0zM108.87-31.503l0.183 30.749 12.05-0.071 0.022 3.65-16.54 0.098-0.205-34.399zM140.785 4.11c-3.19-0.143-6.067-1.023-8.631-2.639-2.563-1.617-4.548-3.798-5.952-6.544-1.412-2.746-2.042-5.797-1.892-9.154v0c0.15-3.35 1.051-6.329 2.703-8.938 1.646-2.616 3.817-4.61 6.515-5.984 2.698-1.38 5.642-1.999 8.832-1.856v0c3.217 0.144 6.107 1.025 8.67 2.641 2.564 1.61 4.542 3.781 5.934 6.513 1.392 2.732 2.013 5.789 1.861 9.173v0c-0.152 3.39-1.044 6.383-2.675 8.979-1.631 2.59-3.795 4.575-6.493 5.955-2.698 1.38-5.655 1.999-8.872 1.854zM140.959 0.214c2.398 0.108 4.584-0.355 6.559-1.388 1.975-1.033 3.558-2.56 4.75-4.581 1.192-2.022 1.849-4.398 1.972-7.129v0c0.124-2.757-0.318-5.189-1.325-7.297-1.007-2.101-2.441-3.753-4.302-4.958-1.855-1.204-3.997-1.861-6.428-1.97v0c-2.431-0.109-4.627 0.353-6.589 1.386-1.955 1.033-3.528 2.551-4.718 4.554-1.198 2.008-1.859 4.391-1.983 7.148v0c-0.122 2.731 0.323 5.156 1.336 7.277 1.006 2.121 2.446 3.783 4.32 4.989 1.868 1.205 4.004 1.861 6.408 1.969zM186.564 7.451l-5.353-0.54-6.737-14.821-5.402-0.545-1.412 13.999-4.468-0.451 3.452-34.226 11.054 1.115c2.587 0.261 4.728 0.922 6.424 1.985 1.695 1.062 2.908 2.391 3.638 3.985 0.73 1.595 0.998 3.36 0.803 5.297v0c-0.237 2.355-1.127 4.362-2.668 6.023-1.542 1.667-3.699 2.659-6.472 2.975v0zM170.741-25.001l-1.308 12.964 6.587 0.665c2.421 0.244 4.295-0.17 5.623-1.242 1.334-1.072 2.102-2.606 2.303-4.602v0c0.205-2.03-0.234-3.662-1.315-4.897-1.082-1.235-2.849-1.976-5.304-2.224v0zM208.172-23.949c3.708 0.581 6.811 1.775 9.308 3.583 2.498 1.802 4.27 4.1 5.317 6.896 1.04 2.795 1.288 5.931 0.743 9.408v0c-0.545 3.478-1.738 6.381-3.581 8.711-1.848 2.322-4.235 3.946-7.16 4.871-2.925 0.925-6.242 1.097-9.95 0.517v0l-10.581-1.657 5.323-33.986zM203.422 6.381c4.387 0.687 7.918 0.049 10.594-1.914 2.669-1.964 4.333-5.044 4.989-9.239v0c0.661-4.222 0.015-7.704-1.937-10.445-1.947-2.734-5.101-4.443-9.461-5.126v0l-6.145-0.962-4.185 26.724z" opacity="1" transform="matrix(1,0,0,1,0,0)" fill="#000000" class="undefined-text-0" data-fill-palette-color="primary" id="text-0"></path></svg></g></svg></g></svg></g></svg></g><g transform="matrix(1,0,0,1,75.54432,0)"><svg viewBox="0 0 244.43135999999998 81.999728330912" height="81.999728330912" width="244.43135999999998"><g><svg version="1.0" xmlns="http://www.w3.org/2000/svg" xmlns:xlink="http://www.w3.org/1999/xlink" x="0" y="0" viewBox="0 0 99.99958801269531 33.547000885009766" enable-background="new 0 0 99.999 33.547" xml:space="preserve" width="244.43135999999998" height="81.999728330912" class="icon-icon-0" data-fill-palette-color="accent" id="icon-0"><path d="M99.212 10.535L79.778 8.898 75.278 0H40.965l-7.417 9.819L2.454 11.456 0 24.445h7.105c0.487-4.882 4.606-8.694 9.617-8.694 5.01 0 9.129 3.812 9.616 8.694h44.283c0.487-4.882 4.606-8.694 9.616-8.694 4.988 0 9.093 3.778 9.61 8.628l8.75-1.264C98.599 23.116 101.29 13.016 99.212 10.535zM55.768 10.765H35.21l6.722-8.898h13.836V10.765zM57.635 10.765V1.866h12.988l4.501 8.898H57.635z" fill="#000000" data-fill-palette-color="accent"></path><path d="M16.723 17.285c-4.491 0-8.132 3.64-8.132 8.131s3.641 8.131 8.132 8.131c4.49 0 8.131-3.64 8.131-8.131S21.213 17.285 16.723 17.285zM16.723 30.787c-2.966 0-5.37-2.404-5.37-5.37s2.404-5.37 5.37-5.37c2.965 0 5.369 2.404 5.369 5.37S19.688 30.787 16.723 30.787z" fill="#000000" data-fill-palette-color="accent"></path><path d="M80.238 17.285c-4.49 0-8.131 3.64-8.131 8.131s3.641 8.131 8.131 8.131c4.491 0 8.132-3.64 8.132-8.131S84.729 17.285 80.238 17.285zM80.238 30.787c-2.965 0-5.369-2.404-5.369-5.37s2.404-5.37 5.369-5.37c2.966 0 5.37 2.404 5.37 5.37S83.204 30.787 80.238 30.787z" fill="#000000" data-fill-palette-color="accent"></path></svg></g></svg></g><g></g></svg></g></svg><rect width="395.52" height="180.0588970373083" fill="none" stroke="none" visibility="hidden"></rect></g></svg></g></svg>